<svg xmlns="http://www.w3.org/2000/svg" viewBox="0 0 160 200" fill="none">
  <!-- Body -->
  <path d="M60 120 L80 200 L100 120" fill="#0e6b52" stroke="#1B4332" stroke-width="2"/>
  <!-- Belt -->
  <rect x="62" y="108" width="36" height="8" rx="4" fill="#1B4332"/>
  <circle cx="80" cy="112" r="4" fill="#F5F0EB" stroke="#1B4332" stroke-width="1"/>
  <!-- Arms raised -->
  <path d="M56 110 L28 76" stroke="#40916C" stroke-width="8" stroke-linecap="round"/>
  <path d="M104 110 L132 76" stroke="#40916C" stroke-width="8" stroke-linecap="round"/>
  <!-- Hands -->
  <circle cx="28" cy="76" r="6" fill="#E8B4A0"/>
  <circle cx="132" cy="76" r="6" fill="#E8B4A0"/>
  <!-- Stars -->
  <text x="18" y="62" font-size="16" fill="#FFD93D">★</text>
  <text x="132" y="62" font-size="16" fill="#FFD93D">★</text>
  <text x="10" y="46" font-size="10" fill="#FFD93D">✦</text>
  <text x="140" y="50" font-size="10" fill="#FFD93D">✦</text>
  <!-- Head -->
  <circle cx="80" cy="56" r="40" fill="#F5F0EB" stroke="#0e6b52" stroke-width="2"/>
  <!-- Hat -->
  <path d="M44 46 Q80 4 116 46" fill="#0e6b52" stroke="#1B4332" stroke-width="1.5"/>
  <circle cx="80" cy="36" r="4" fill="#FFD93D"/>
  <!-- Eyes happy -->
  <path d="M64 52 Q68 46 72 52" stroke="#1a1a2e" stroke-width="2" fill="none" stroke-linecap="round"/>
  <path d="M88 52 Q92 46 96 52" stroke="#1a1a2e" stroke-width="2" fill="none" stroke-linecap="round"/>
  <!-- Beard -->
  <path d="M50 62 Q80 86 110 62" fill="#E8E0D8" stroke="#D4C8BE" stroke-width="1.2"/>
  <!-- Nose -->
  <ellipse cx="80" cy="62" rx="5" ry="4" fill="#E8B4A0"/>
  <!-- Big smile -->
  <path d="M70 70 Q80 82 90 70" stroke="#1a1a2e" stroke-width="1.5" fill="none" stroke-linecap="round"/>
  <!-- Cheeks -->
  <circle cx="54" cy="64" r="5" fill="#F0C0B0" opacity="0.35"/>
  <circle cx="106" cy="64" r="5" fill="#F0C0B0" opacity="0.35"/>
  <!-- Legs -->
  <rect x="64" y="192" width="14" height="12" rx="4" fill="#1B4332"/>
  <rect x="82" y="192" width="14" height="12" rx="4" fill="#1B4332"/>
  <!-- Shoes -->
  <ellipse cx="64" cy="198" rx="10" ry="5" fill="#1a1a2e"/>
  <ellipse cx="96" cy="198" rx="10" ry="5" fill="#1a1a2e"/>
</svg>
